<?xml version="1.0" standalone="no"?>
<!DOCTYPE svg PUBLIC "-//W3C//DTD SVG 20010904//EN"
 "http://www.w3.org/TR/2001/REC-SVG-20010904/DTD/svg10.dtd">
<svg version="1.0" xmlns="http://www.w3.org/2000/svg"
 width="1586.000000pt" height="1575.000000pt" viewBox="0 0 1586.000000 1575.000000"
 preserveAspectRatio="xMidYMid meet">

<g transform="translate(0.000000,1575.000000) scale(0.100000,-0.100000)"
fill="#000000" stroke="none">
<path d="M7460 15724 c-19 -2 -102 -8 -185 -14 -488 -35 -1061 -139 -1561
-284 -1245 -360 -2414 -1052 -3334 -1976 -1246 -1250 -2021 -2846 -2229 -4590
-39 -323 -46 -466 -46 -920 0 -454 7 -597 46 -920 229 -1921 1148 -3663 2611
-4946 704 -618 1556 -1125 2423 -1443 77 -29 151 -56 163 -62 13 -5 120 -38
237 -74 538 -163 1000 -257 1485 -304 399 -39 504 -43 915 -38 818 10 1421
104 2212 343 116 35 222 68 235 73 12 6 86 33 163 62 979 358 1907 940 2680
1679 1217 1163 2022 2678 2299 4325 81 480 101 740 101 1305 0 565 -20 825
-101 1305 -317 1881 -1328 3595 -2824 4787 -1028 818 -2218 1357 -3495 1582
-483 86 -743 108 -1305 111 -250 2 -471 1 -490 -1z m-525 -6235 l2690 -2810 3
2745 2 2746 665 0 665 0 0 -4295 c0 -3947 -1 -4296 -16 -4302 -9 -3 -27 -2
-39 3 -12 5 -1232 1273 -2711 2819 l-2689 2810 -3 -2748 -2 -2747 -660 0 -660
0 0 4288 c0 2359 3 4292 7 4295 34 34 -9 78 2748 -2804z"/>
</g>
</svg>
